<svg id="Слой_1" data-name="Слой 1" xmlns="http://www.w3.org/2000/svg" viewBox="0 0 146.68 127.4"><defs><style>.cls-1,.cls-2{fill:#fff;}.cls-2{opacity:0.67;}</style></defs><title>Лого Приход</title><path class="cls-1" d="M30.92,102.52v9.1H29v-7.34H25.5v7.34H23.55v-9.1Z" transform="translate(-1.42 -3.02)"/><path class="cls-1" d="M36.54,105.17c1.83,0,2.82,1.56,2.82,3.26a3,3,0,0,1-4.44,2.91v3.49H33.1v-7.36c0-.6.07-1-.59-1v-1.21c.84-.18,2.06-.19,2.06,1A2.11,2.11,0,0,1,36.54,105.17Zm-1.68,4.67c1.29.76,2.67.18,2.67-1.41,0-.83-.44-1.66-1.37-1.66a1.35,1.35,0,0,0-1.3,1.43Z" transform="translate(-1.42 -3.02)"/><path class="cls-1" d="M41.16,111.63h-.47v-6.28h1.75v3.16l3.69-3.19h.55v6.3H44.93v-3.24Z" transform="translate(-1.42 -3.02)"/><path class="cls-1" d="M50.94,109.41l-.74,1.24-.67,1H47.71v-.21l2.17-3.12L48,105.55v-.2h1.74l.56.82.6,1h0l.58-1.06.55-.81H54v.21L52,108.35l2.12,3.06v.21H52.39l-.7-1L51,109.41Z" transform="translate(-1.42 -3.02)"/><path class="cls-1" d="M58,111.75a3.29,3.29,0,1,1,3.3-3.29A3.2,3.2,0,0,1,58,111.75Zm0-1.59a1.55,1.55,0,0,0,1.53-1.7A1.53,1.53,0,0,0,58,106.77a1.71,1.71,0,0,0,0,3.39Z" transform="translate(-1.42 -3.02)"/><path class="cls-1" d="M62,113l0-2.76h.11c1,0,1-.75,1.11-1.71l.49-3.15h4.69v4.86h.84L69.13,113H67.56v-1.35h-4V113Zm4.65-6.12H65.13l-.25,2-.08.49a1.36,1.36,0,0,1-.4.85h2.26Z" transform="translate(-1.42 -3.02)"/><path class="cls-1" d="M81.25,102.52v9.1h-2v-7.34H75.83v7.34h-2v-9.1Z" transform="translate(-1.42 -3.02)"/><path class="cls-1" d="M86.11,111.75a3.29,3.29,0,1,1,3.3-3.29A3.19,3.19,0,0,1,86.11,111.75Zm0-1.59a1.54,1.54,0,0,0,1.53-1.7,1.52,1.52,0,0,0-1.49-1.69,1.71,1.71,0,0,0,0,3.39Z" transform="translate(-1.42 -3.02)"/><path class="cls-1" d="M93,107.68c1.44,0,1.8-1,1.8-2.34h1.72A3.11,3.11,0,0,1,95,108.47l1.77,3v.18H95L93.49,109a1.88,1.88,0,0,1-.53.07h-.43v2.49H90.72v-6.25h1.81v2.33Z" transform="translate(-1.42 -3.02)"/><path class="cls-1" d="M101.75,105.17c1.83,0,2.82,1.56,2.82,3.26a3,3,0,0,1-4.45,2.91v3.49H98.3v-7.36c0-.6.08-1-.58-1l0-1.21c.85-.18,2.07-.19,2.07,1A2.09,2.09,0,0,1,101.75,105.17Zm-1.68,4.67c1.29.76,2.67.18,2.67-1.41a1.48,1.48,0,0,0-1.37-1.66,1.35,1.35,0,0,0-1.3,1.43Z" transform="translate(-1.42 -3.02)"/><path class="cls-1" d="M108.86,111.75a3.29,3.29,0,1,1,3.3-3.29A3.19,3.19,0,0,1,108.86,111.75Zm0-1.59a1.54,1.54,0,0,0,1.53-1.7,1.52,1.52,0,0,0-1.49-1.69,1.71,1.71,0,0,0,0,3.39Z" transform="translate(-1.42 -3.02)"/><path class="cls-1" d="M117.93,108.24a1.61,1.61,0,0,1,1.17,1.57c0,1.61-1.45,1.82-2.71,1.82h-2.92v-6.31H116c1.18,0,2.82.11,2.82,1.69A1.17,1.17,0,0,1,117.93,108.24Zm-1.86-.48c.43,0,.94,0,.94-.55s-.49-.6-.94-.6h-.84v1.15Zm.12,2.5c.48,0,1.16,0,1.16-.65s-.68-.66-1.19-.66h-.93v1.31Z" transform="translate(-1.42 -3.02)"/><path class="cls-1" d="M122.3,111.73a2.12,2.12,0,0,1-2.27-2c-.07-1.53,1-2.26,2.43-2.26a3.17,3.17,0,0,1,1.66.4v-.43c0-.76-.94-.89-1.56-.89a3.64,3.64,0,0,0-1.81.37l-.23-1.3a5.7,5.7,0,0,1,2.35-.47c1.61,0,3,.54,3,2.34v2.27c0,.53,0,.84.59.8v1c-.95.2-2,.15-2-1A2.35,2.35,0,0,1,122.3,111.73Zm1.78-2.69a2.4,2.4,0,0,0-1.3-.36c-.57,0-1,.36-1,1a.78.78,0,0,0,.85.68c.6,0,1.36-.3,1.42-1Z" transform="translate(-1.42 -3.02)"/><path class="cls-1" d="M8.79,118.12v9.1H6.84v-7.34H3.37v7.34H1.42v-9.1Z" transform="translate(-1.42 -3.02)"/><path class="cls-1" d="M14.41,120.77c1.83,0,2.82,1.56,2.82,3.26a3,3,0,0,1-4.45,2.91v3.49H11v-7.36c0-.6.08-1-.58-.95v-1.21c.84-.18,2.06-.19,2.06,1A2.09,2.09,0,0,1,14.41,120.77Zm-1.68,4.67c1.29.76,2.67.18,2.67-1.41A1.48,1.48,0,0,0,14,122.37a1.35,1.35,0,0,0-1.3,1.43Z" transform="translate(-1.42 -3.02)"/><path class="cls-1" d="M24.25,124.46H20c.06,1,.79,1.35,1.66,1.42a4.63,4.63,0,0,0,.83,0,5.31,5.31,0,0,0,1.5-.37l.21,1.32a5.81,5.81,0,0,1-2.43.56A3.24,3.24,0,0,1,18.18,124a3.11,3.11,0,0,1,3.29-3.22C23.76,120.79,24.73,122.33,24.25,124.46ZM20,123.29h2.76c0-.82-.63-1.1-1.3-1.1A1.39,1.39,0,0,0,20,123.29Z" transform="translate(-1.42 -3.02)"/><path class="cls-1" d="M30,123.21a1.33,1.33,0,0,0-1.31-.86,1.73,1.73,0,0,0,0,3.44,1.38,1.38,0,0,0,1.34-1h1.73a3,3,0,0,1-3.12,2.54,3.3,3.3,0,1,1,0-6.59,3,3,0,0,1,3.08,2.45Z" transform="translate(-1.42 -3.02)"/><path class="cls-1" d="M37.5,123.84a1.62,1.62,0,0,1,1.17,1.57c0,1.61-1.46,1.82-2.72,1.82H33v-6.31h2.49c1.19,0,2.82.11,2.82,1.69A1.17,1.17,0,0,1,37.5,123.84Zm-1.86-.48c.43,0,.93,0,.93-.55s-.49-.6-.93-.6h-.85v1.15Zm.11,2.5c.49,0,1.16,0,1.16-.65s-.67-.66-1.18-.66h-.94v1.31Z" transform="translate(-1.42 -3.02)"/><path class="cls-1" d="M41,125a2.1,2.1,0,0,1-1.19-1.85A2.15,2.15,0,0,1,42.06,121h3.43v6.27H43.66v-1.9h-.87l-1.34,1.9H39.51V127Zm2.67-1.06v-1.58H42.59a.86.86,0,0,0-1,.82c0,.44.36.76,1,.76Z" transform="translate(-1.42 -3.02)"/><path class="cls-1" d="M48.48,127.19v-4.65H46.63V121H52.1v1.59H50.25v4.65Z" transform="translate(-1.42 -3.02)"/><path class="cls-1" d="M56.15,127.35a3.29,3.29,0,1,1,3.3-3.29A3.19,3.19,0,0,1,56.15,127.35Zm0-1.59a1.55,1.55,0,0,0,1.54-1.7,1.53,1.53,0,0,0-1.5-1.69,1.71,1.71,0,0,0,0,3.39Z" transform="translate(-1.42 -3.02)"/><path class="cls-1" d="M61.23,127.23h-.46V121h1.75v3.16l3.69-3.19h.55v6.3H65V124Zm.68-9.08a2.1,2.1,0,0,0,4.19,0c-.36-.05-.73-.09-1.1-.11a.89.89,0,0,1-1,.75c-.56,0-.91-.26-1-.75Z" transform="translate(-1.42 -3.02)"/><path class="cls-1" d="M73.75,121.5h2c2.17,0,3.22,1.22,3.22,2.79a2.89,2.89,0,0,1-3.22,2.93H71.84v-9.1h6.37v1.7H73.75Zm0,1.62v2.39h2a1.21,1.21,0,0,0,1.34-1.21,1.19,1.19,0,0,0-1.34-1.18Z" transform="translate(-1.42 -3.02)"/><path class="cls-1" d="M83.2,127.35a3.29,3.29,0,1,1,3.31-3.29A3.19,3.19,0,0,1,83.2,127.35Zm0-1.59a1.55,1.55,0,0,0,1.54-1.7,1.53,1.53,0,0,0-1.5-1.69,1.71,1.71,0,0,0,0,3.39Z" transform="translate(-1.42 -3.02)"/><path class="cls-1" d="M87.82,127.22V121h4.59v1.59H89.59v4.68Z" transform="translate(-1.42 -3.02)"/><path class="cls-1" d="M96.46,127.35a3.29,3.29,0,1,1,3.31-3.29A3.19,3.19,0,0,1,96.46,127.35Zm0-1.59a1.55,1.55,0,0,0,1.54-1.7,1.53,1.53,0,0,0-1.5-1.69,1.71,1.71,0,0,0,0,3.39Z" transform="translate(-1.42 -3.02)"/><path class="cls-1" d="M104.73,120.77c1.84,0,2.82,1.56,2.82,3.26a3,3,0,0,1-4.44,2.91v3.49h-1.82v-7.36c0-.6.07-1-.59-.95v-1.21c.84-.18,2.07-.19,2.07,1A2.09,2.09,0,0,1,104.73,120.77Zm-1.68,4.67c1.29.76,2.67.18,2.67-1.41,0-.83-.44-1.66-1.36-1.66a1.36,1.36,0,0,0-1.31,1.43Z" transform="translate(-1.42 -3.02)"/><path class="cls-1" d="M111.84,127.35a3.29,3.29,0,1,1,3.31-3.29A3.19,3.19,0,0,1,111.84,127.35Zm0-1.59a1.55,1.55,0,0,0,1.54-1.7,1.53,1.53,0,0,0-1.5-1.69,1.71,1.71,0,0,0,0,3.39Z" transform="translate(-1.42 -3.02)"/><path class="cls-1" d="M115.83,128.57l0-2.76h.12c1,0,.95-.75,1.1-1.71l.5-3.15h4.69v4.86H123l-.06,2.76h-1.57v-1.35h-4v1.35Zm4.66-6.13H119l-.24,2-.08.48a1.36,1.36,0,0,1-.4.86h2.26Z" transform="translate(-1.42 -3.02)"/><path class="cls-1" d="M124.78,127.23h-.47V121h1.75v3.16l3.7-3.19h.54v6.3h-1.75V124Z" transform="translate(-1.42 -3.02)"/><path class="cls-1" d="M132,127.22V121h1.74v4.67h2.19V121h1.74v4.86h.82l-.1,2.73h-1.5v-1.32Z" transform="translate(-1.42 -3.02)"/><path class="cls-1" d="M139.77,127.22V121h1.74v1.83h1c1.48,0,2.78.61,2.78,2.23s-1.33,2.21-2.78,2.21Zm1.74-3.07v1.71h1c.65,0,1-.33,1-.85s-.4-.86-1-.86Zm4.9-3.19h1.69v6.26h-1.69Z" transform="translate(-1.42 -3.02)"/><circle class="cls-1" cx="72.93" cy="30.31" r="2.72"/><path class="cls-1" d="M62.67,31V87h-4V31h4m1-2h-7V89h7V29Z" transform="translate(-1.42 -3.02)"/><path class="cls-2" d="M69.17,37.58c-2.92,0-2.5,4.25-2.5,4.25V54h5V41.83S72.08,37.58,69.17,37.58Z" transform="translate(-1.42 -3.02)"/><rect class="cls-1" x="39.25" y="57" width="15" height="2"/><path class="cls-1" d="M55.67,62h-15V60h15Zm-15,0h14V60h-14Z" transform="translate(-1.42 -3.02)"/><path class="cls-1" d="M89.67,31V87h-4V31h4m2-2h-7V89h7V29Z" transform="translate(-1.42 -3.02)"/><path class="cls-2" d="M78.59,67.53A7.57,7.57,0,0,0,74.36,66H74a7.57,7.57,0,0,0-4.23,1.51,5.6,5.6,0,0,0-2.07,4.39V89h13V71.92A5.63,5.63,0,0,0,78.59,67.53Z" transform="translate(-1.42 -3.02)"/><path class="cls-2" d="M79.17,37.58c-2.92,0-2.5,4.25-2.5,4.25V54h5V41.83S82.08,37.58,79.17,37.58Z" transform="translate(-1.42 -3.02)"/><rect class="cls-1" x="93.67" y="60.02" width="15" height="2" transform="translate(200.91 119.02) rotate(-180)"/><path class="cls-1" d="M108.67,62h-15V60h15Zm-14,0h14V60h-14Z" transform="translate(-1.42 -3.02)"/><path class="cls-1" d="M43.86,71.26c.3,0,.91,0,1.83.07q1.05.06,1.68.06l3.9-.1c.33,0,.49.11.49.34s-.15.32-.44.36a2.66,2.66,0,0,0-1.34.37,2.13,2.13,0,0,0-.52,1.26,30.86,30.86,0,0,0-.19,4.48q0,4,.13,6.2a6.07,6.07,0,0,0,.51,2.7,1.52,1.52,0,0,0,1.29.51c.42,0,.62.11.62.33s-.22.45-.67.45l-.56,0c-1.59-.11-2.68-.16-3.26-.16a27,27,0,0,0-2.83.11,5.71,5.71,0,0,1-.69,0c-.31,0-.47-.12-.47-.36s.13-.31.4-.35a2.16,2.16,0,0,0,1.45-.6,4.43,4.43,0,0,0,.45-2.23c0-1.17.08-3,.08-5.48s0-4.37-.14-5.25a3,3,0,0,0-.47-1.63A2,2,0,0,0,43.88,72c-.33,0-.49-.16-.49-.4S43.55,71.26,43.86,71.26Z" transform="translate(-1.42 -3.02)"/><path class="cls-1" d="M105.38,71.87a1.65,1.65,0,0,0,.33-.5c.13-.26.27-.4.43-.4s.37.19.42.56L107,75l0,.42a.31.31,0,0,1-.35.34.46.46,0,0,1-.36-.12,4.38,4.38,0,0,1-.44-.78,5.37,5.37,0,0,0-1.8-2,4.34,4.34,0,0,0-2.53-.91,3,3,0,0,0-2,.71,2.25,2.25,0,0,0-.81,1.78A2,2,0,0,0,99.48,76a7.82,7.82,0,0,0,2.93,1.29c2.27.65,3.8,1.44,4.61,2.39a4.82,4.82,0,0,1,1.19,3.16,4.94,4.94,0,0,1-.87,3,6.64,6.64,0,0,1-2.1,1.9,6.27,6.27,0,0,1-3.12.69,8.51,8.51,0,0,1-2.24-.31,12.29,12.29,0,0,1-2.38-.93,2.29,2.29,0,0,0-.43.76c-.14.35-.31.52-.51.52s-.34-.23-.38-.68l-.37-4.61c0-.21,0-.33,0-.38a.33.33,0,0,1,.38-.37q.28,0,.54.63a9.06,9.06,0,0,0,2.1,3.18,4.36,4.36,0,0,0,3.09,1.27,3.36,3.36,0,0,0,2.42-.89,2.76,2.76,0,0,0,.92-2,2.48,2.48,0,0,0-.85-1.9,8.62,8.62,0,0,0-3.06-1.49,16.35,16.35,0,0,1-3.19-1.33,4.79,4.79,0,0,1-1.68-1.75,4.51,4.51,0,0,1-.63-2.25,4.43,4.43,0,0,1,1.54-3.39,6,6,0,0,1,4.2-1.4A12.29,12.29,0,0,1,105.38,71.87Z" transform="translate(-1.42 -3.02)"/><rect class="cls-1" x="63.67" y="60.02" width="22" height="2" transform="translate(147.91 119.02) rotate(-180)"/><path class="cls-1" d="M85.67,62h-22V60h22Zm-22,0h22V60h-22Z" transform="translate(-1.42 -3.02)"/><polygon class="cls-1" points="77.92 4 73.92 4 73.92 0 71.92 0 71.92 4 67.92 4 67.92 6 71.92 6 71.92 15 73.92 15 73.92 6 77.92 6 77.92 4"/><polygon class="cls-1" points="114.25 75.42 114.25 78.29 140.5 75.42 114.25 72.56 114.25 75.42"/><polygon class="cls-1" points="5.99 75.42 32.24 78.29 32.24 75.42 32.24 72.56 5.99 75.42"/><polygon class="cls-1" points="25.39 28.49 41.94 49.09 43.96 47.06 45.99 45.04 25.39 28.49"/><polygon class="cls-1" points="120.96 27.96 100.37 44.5 102.39 46.52 104.42 48.55 120.96 27.96"/><polygon class="cls-1" points="11.44 49.3 36.83 56.6 35.74 59.25 34.66 61.9 11.44 49.3"/><polygon class="cls-1" points="134.87 49.01 109.55 56.51 110.66 59.16 111.76 61.8 134.87 49.01"/><path class="cls-1" d="M115.34,73.81l-1-5.53a11.31,11.31,0,0,1,3.21-.73c1.83-.14,4.22.82,6.09.13s2.43-2.87,5.27-2.72,5.38,1,6.47.35a15.31,15.31,0,0,0,2.39-2.17l.84-.73a7.14,7.14,0,0,1-1.87,4.26c-1.82,2-3.75,1.5-5.78,1.51A4.29,4.29,0,0,0,127,70.06,6,6,0,0,1,121.38,72a5.45,5.45,0,0,0-6,1.81" transform="translate(-1.42 -3.02)"/><path class="cls-1" d="M99.49,45.91l-4.64-3.18a11.44,11.44,0,0,1,1.76-2.79c1.19-1.39,3.56-2.41,4.39-4.21s-.31-3.75,1.81-5.66,4.52-3.08,4.83-4.32a16.19,16.19,0,0,0,.14-3.22l.08-1.12a7.14,7.14,0,0,1,1.69,4.34c.12,2.69-1.59,3.71-3,5.15A4.29,4.29,0,0,0,105.07,35a6,6,0,0,1-2.6,5.35,5.44,5.44,0,0,0-3,5.55" transform="translate(-1.42 -3.02)"/><path class="cls-1" d="M42.52,52.89l-3.19,4.64a11.31,11.31,0,0,1-2.79-1.77c-1.39-1.19-2.4-3.56-4.21-4.39s-3.74.31-5.65-1.81S23.6,45,22.35,44.74a16.2,16.2,0,0,0-3.22-.15L18,44.51a7.18,7.18,0,0,1,4.34-1.69c2.7-.12,3.72,1.59,5.16,3a4.3,4.3,0,0,0,4.11,1.46A6,6,0,0,1,37,49.9a5.44,5.44,0,0,0,5.55,3" transform="translate(-1.42 -3.02)"/><path class="cls-1" d="M35.27,66.81l-1.21,5.5a11.26,11.26,0,0,1-3.25-.59c-1.74-.58-3.56-2.4-5.55-2.49s-3.35,1.7-5.92.45-4.55-3-5.82-2.84a16,16,0,0,0-3,1.07l-1.07.35a7.22,7.22,0,0,1,3.39-3.2c2.45-1.12,4,.08,5.91.86a4.29,4.29,0,0,0,4.36-.19,6,6,0,0,1,5.93.4,5.44,5.44,0,0,0,6.27.68" transform="translate(-1.42 -3.02)"/><path class="cls-1" d="M55,42.39l-4.74,3a11.25,11.25,0,0,1-1.89-2.7c-.81-1.64-.82-4.22-2.16-5.69s-3.57-1.17-4.5-3.87S40.65,27.79,39.62,27a16,16,0,0,0-2.91-1.39l-1-.51a7.2,7.2,0,0,1,4.66.14c2.53.94,2.8,2.91,3.57,4.78a4.3,4.3,0,0,0,3.22,3,6,6,0,0,1,3.91,4.48,5.45,5.45,0,0,0,4,4.92" transform="translate(-1.42 -3.02)"/><path class="cls-1" d="M33.86,82.53l1,5.53a11.32,11.32,0,0,1-3.22.73c-1.83.14-4.22-.83-6.08-.13s-2.43,2.87-5.28,2.71-5.38-1-6.47-.35a16.27,16.27,0,0,0-2.38,2.18l-.85.73a7.19,7.19,0,0,1,1.88-4.26c1.81-2,3.75-1.5,5.77-1.52a4.26,4.26,0,0,0,3.94-1.87,6,6,0,0,1,5.62-1.94,5.44,5.44,0,0,0,6-1.81" transform="translate(-1.42 -3.02)"/><path class="cls-1" d="M113.94,89.52,115.15,84a11.35,11.35,0,0,1,3.24.58c1.74.59,3.57,2.4,5.56,2.49s3.35-1.69,5.91-.44,4.56,3,5.83,2.84a17,17,0,0,0,3-1.07l1.06-.35a7.12,7.12,0,0,1-3.38,3.19c-2.45,1.13-4-.07-5.91-.85a4.29,4.29,0,0,0-4.36.19,6,6,0,0,1-5.94-.4,5.44,5.44,0,0,0-6.26-.69" transform="translate(-1.42 -3.02)"/><path class="cls-1" d="M110.19,58l-2.91-4.81A11.39,11.39,0,0,1,110,51.33c1.66-.77,4.24-.71,5.74-2s1.26-3.54,4-4.4,5.39-.95,6.18-2a16.19,16.19,0,0,0,1.46-2.87l.53-1a7.18,7.18,0,0,1-.25,4.65c-1,2.51-3,2.73-4.87,3.46a4.29,4.29,0,0,0-3,3.14,6,6,0,0,1-4.57,3.8,5.43,5.43,0,0,0-5,3.82" transform="translate(-1.42 -3.02)"/><polygon class="cls-1" points="81.92 21 72.92 16.97 63.92 21 53.92 21 53.92 22 53.92 23 63.92 23 72.92 18.97 81.92 23 91.92 23 91.92 22 91.92 21 81.92 21"/></svg>